<svg fill="none" height="512" viewBox="0 0 24 24" width="512" xmlns="http://www.w3.org/2000/svg"><path d="m21 10.9749v-2.97502c0-.53043-.2107-1.03914-.5858-1.41421-.3751-.37508-.8838-.58579-1.4142-.58579h-6v-1.312c.305-.274.5-.668.5-1.11 0-.39782-.158-.77935-.4393-1.06066-.2813-.2813-.6629-.43934-1.0607-.43934s-.7794.15804-1.0607.43934c-.2813.28131-.4393.66284-.4393 1.06066 0 .442.195.836.5 1.11v1.312h-6c-.53043 0-1.03914.21071-1.41421.58579-.37508.37507-.58579.88378-.58579 1.41421v2.99802l-.072.005c-.25211.0179-.48804.1308-.66025.3158s-.26788.4284-.26775.6812v2c0 .2652.10536.5196.29289.7071.18754.1875.44189.2929.70711.2929v5c0 .5304.21071 1.0391.58579 1.4142.37507.3751.88378.5858 1.41421.5858h14c.5304 0 1.0391-.2107 1.4142-.5858s.5858-.8838.5858-1.4142v-5c.2652 0 .5196-.1054.7071-.2929s.2929-.4419.2929-.7071v-1.938c.0116-.1552-.0131-.311-.072-.455-.202-.488-.635-.605-.928-.632zm-14 1.025c0-1.104.672-2.00002 1.5-2.00002s1.5.89602 1.5 2.00002-.672 2-1.5 2-1.5-.896-1.5-2zm8.998 6c-1.001-.003-7.997 0-7.998 0v-2s7.001-.002 8.002 0zm-.498-4c-.828 0-1.5-.896-1.5-2s.672-2.00002 1.5-2.00002 1.5.89602 1.5 2.00002-.672 2-1.5 2z" fill="rgb(255,255,255)"/></svg>